#!OML:ASF G:\ViconDB\ViconDB\414\test\team2\shane.ASF
:FULLY-SPECIFIED
:DEGREES
477
root 14.6846 16.8012 -17.8339 -193.652 -44.1855 -170.269
lowerback 9.07614 2.48035 5.57042
upperback 3.45603 3.58948 1.46304
thorax -1.23105 1.72817 -1.95389
lowerneck -16.2836 -4.10076 -5.71026
upperneck 22.4918 -6.29628 6.49875
head 10.263 -2.80706 2.3596
rclavicle -1.14401e-013 3.1408e-014
rhumerus -12.0122 2.61892 -87.2499
rradius 37.5842
rwrist 35.2162
rhand -33.0823 -16.1237
rfingers 7.12502
rthumb -6.29362 -46.0102
lclavicle -1.14401e-013 3.1408e-014
lhumerus -46.1374 -5.77253 83.3886
lradius 15.7246
lwrist -24.1598
lhand -36.5207 7.426
lfingers 7.12502
lthumb -9.61227 37.1867
rfemur 26.8889 -16.9911 16.7602
rtibia 6.99722e-014
rfoot -13.5122 -0.149923
rtoes -14.0672
lfemur -20.5682 25.1649 -13.5727
ltibia 28.7431
lfoot -23.7924 -22.6377
ltoes -16.6043
478
root 14.5562 16.7757 -17.9324 -193.875 -44.4988 -169.871
lowerback 9.03472 2.47464 5.75471
upperback 3.24075 3.61738 1.56925
thorax -1.42507 1.7377 -1.95368
lowerneck -16.2324 -4.04658 -5.76574
upperneck 22.6893 -6.21283 6.43046
head 10.3177 -2.78467 2.35832
rclavicle -6.70898e-016 1.07344e-014
rhumerus -12.3155 3.56514 -87.2389
rradius 38.2897
rwrist 34.7114
rhand -32.9997 -15.8436
rfingers 7.12502
rthumb -6.21397 -45.7324
lclavicle -6.70898e-016 1.07344e-014
lhumerus -46.615 -5.14388 83.0899
lradius 15.4472
lwrist -24.6038
lhand -36.4548 7.50758
lfingers 7.12502
lthumb -9.5486 37.2712
rfemur 27.4408 -16.8107 16.9033
rtibia -6.36111e-014
rfoot -13.5449 -0.659825
rtoes -15.3594
lfemur -20.7511 25.5903 -13.799
ltibia 29.0998
lfoot -23.9869 -21.5566
ltoes -16.3718
479
root 14.4215 16.7559 -18.0278 -194.056 -44.6905 -169.521
lowerback 8.83524 2.48507 6.06533
upperback 3.10323 3.65816 1.58425
thorax -1.43523 1.76019 -2.10795
lowerneck -16.2886 -4.01262 -5.65327
upperneck 22.8123 -6.17166 6.30775
head 10.3619 -2.76922 2.30153
rclavicle -1.56816e-013 -1.27222e-014
rhumerus -12.3788 4.36507 -87.4351
rradius 38.7393
rwrist 34.4298
rhand -33.064 -16.2091
rfingers 7.12502
rthumb -6.27597 -46.0961
lclavicle -6.70898e-016 1.07344e-014
lhumerus -46.615 -5.14388 83.0899
lradius 15.4472
lwrist -24.6038
lhand -36.4548 7.50758
lfingers 7.12502
lthumb -9.5486 37.2712
rfemur 27.9335 -16.4641 16.9455
rtibia -3.81667e-014
rfoot -13.3434 -0.728845
rtoes -15.4555
lfemur -20.6579 25.8008 -13.9904
ltibia 29.5465
lfoot -24.291 -20.0537
ltoes -17.1
480
root 14.287 16.7218 -18.1251 -194.332 -44.9389 -169.16
lowerback 8.79554 2.51322 6.30765
upperback 2.94962 3.72853 1.60337
thorax -1.55241 1.7927 -2.23134
lowerneck -16.3282 -3.99846 -5.60585
upperneck 22.9647 -6.18504 6.32522
head 10.4246 -2.77008 2.29801
rclavicle 5.64797e-014 1.11319e-014
rhumerus -12.7658 4.85223 -87.5367
rradius 39.3477
rwrist 34.0914
rhand -32.9835 -15.6103
rfingers 7.12502
rthumb -6.19829 -45.4996
lclavicle -6.70898e-016 1.07344e-014
lhumerus -46.615 -5.14388 83.0899
lradius 15.4472
lwrist -24.6038
lhand -36.4548 7.50758
lfingers 7.12502
lthumb -9.5486 37.2712
rfemur 28.5888 -16.2079 17.0595
rtibia 6.99722e-014
rfoot -13.2844 -1.28394
rtoes -17.4379
lfemur -20.3479 25.6402 -14.0371
ltibia 30.0694
lfoot -23.9616 -18.7564
ltoes -16.879
481
root 14.1463 16.6944 -18.2217 -194.659 -45.1066 -168.69
lowerback 8.6442 2.5355 6.68125
upperback 2.81102 3.79103 1.65148
thorax -1.58527 1.82309 -2.39008
lowerneck -16.4085 -3.96928 -5.61274
upperneck 23.1394 -6.15082 6.30847
head 10.5008 -2.75611 2.298
rclavicle -9.24349e-014 2.94201e-014
rhumerus -13.1395 5.53062 -87.6393
rradius 39.8755
rwrist 34.0426
rhand -32.8312 -15.8286
rfingers 7.12502
rthumb -6.05125 -45.7222
lclavicle -6.70898e-016 1.07344e-014
lhumerus -46.615 -5.14388 83.0899
lradius 15.4472
lwrist -24.6038
lhand -36.4548 7.50758
lfingers 7.12502
lthumb -9.5486 37.2712
rfemur 29.1921 -15.8614 17.1981
rtibia -1.90833e-014
rfoot -13.0701 -1.39515
rtoes -18.1919
lfemur -19.9166 25.313 -13.925
ltibia 30.6015
lfoot -23.6346 -17.8004
ltoes -16.045
482
root 14.0062 16.6755 -18.3222 -194.895 -45.2359 -168.411
lowerback 8.55911 2.57977 6.78137
upperback 2.67456 3.86618 1.64942
thorax -1.6668 1.85854 -2.45385
lowerneck -16.403 -3.96531 -5.55075
upperneck 23.2404 -6.1947 6.37276
head 10.5399 -2.76574 2.30464
rclavicle 1.76421e-014 -2.38542e-015
rhumerus -13.5231 6.0791 -87.9379
rradius 40.3354
rwrist 33.5117
rhand -32.7625 -15.6644
rfingers 7.12502
rthumb -5.98494 -45.5599
lclavicle -6.70898e-016 1.07344e-014
lhumerus -46.615 -5.14388 83.0899
lradius 15.4472
lwrist -24.6038
lhand -36.4548 7.50758
lfingers 7.12502
lthumb -9.5486 37.2712
rfemur 29.8596 -15.4382 17.2027
rtibia -5.40694e-014
rfoot -12.7737 -1.39302
rtoes -18.9374
lfemur -19.3871 24.9396 -13.7778
ltibia 31.1377
lfoot -22.9998 -17.7728
ltoes -14.3318
483
root 13.8575 16.663 -18.4263 -195.284 -45.2869 -168.042
lowerback 8.41646 2.65 6.98155
upperback 2.61146 3.97047 1.69021
thorax -1.63268 1.91138 -2.52505
lowerneck -16.5155 -3.9149 -5.39452
upperneck 23.3662 -6.13776 6.24899
head 10.5939 -2.7375 2.24153
rclavicle 8.79871e-014 1.11319e-014
rhumerus -14.0668 6.65957 -88.083
rradius 40.8753
rwrist 33.2568
rhand -32.7193 -15.4826
rfingers 7.12502
rthumb -5.94318 -45.3792
lclavicle -6.70898e-016 1.07344e-014
lhumerus -46.615 -5.14388 83.0899
lradius 15.4472
lwrist -24.6038
lhand -36.4548 7.50758
lfingers 7.12502
lthumb -9.5486 37.2712
rfemur 30.622 -14.9465 17.2619
rtibia -3.18055e-014
rfoot -12.3835 -1.39045
rtoes -19.9569
lfemur -18.8194 24.4057 -13.4542
ltibia 31.5421
lfoot -21.7818 -18.0544
ltoes -11.7723
484
root 13.7074 16.6551 -18.5317 -195.638 -45.4213 -167.67
lowerback 8.23372 2.70283 7.18882
upperback 2.50339 4.05365 1.66056
thorax -1.61912 1.95432 -2.67005
lowerneck -16.4402 -3.88678 -5.18621
upperneck 23.3773 -6.16969 6.26401
head 10.5792 -2.73575 2.20805
rclavicle -6.54747e-014 -1.31198e-014
rhumerus -14.5364 6.59417 -88.4408
rradius 41.0398
rwrist 33.4553
rhand -32.8112 -15.1102
rfingers 7.12502
rthumb -6.03197 -45.0043
lclavicle -6.70898e-016 1.07344e-014
lhumerus -46.615 -5.14388 83.0899
lradius 15.4472
lwrist -24.6038
lhand -36.4548 7.50758
lfingers 7.12502
lthumb -9.5486 37.2712
rfemur 31.3145 -14.5433 17.3282
rtibia -7.63333e-014
rfoot -11.7839 -1.36051
rtoes -21.1568
lfemur -18.4791 24.0435 -13.2016
ltibia 31.8141
lfoot -20.3914 -18.2419
ltoes -9.76442
485
root 13.5508 16.6532 -18.6378 -195.688 -45.4593 -167.684
lowerback 7.98981 2.79546 7.13152
upperback 2.37526 4.16758 1.59491
thorax -1.60631 2.014 -2.70542
lowerneck -16.3949 -3.82117 -5.10613
upperneck 23.5296 -6.14951 6.35504
head 10.6254 -2.71364 2.2313
rclavicle -5.93993e-014 -5.96354e-015
rhumerus -15.3017 7.08088 -88.7288
rradius 41.368
rwrist 33.0255
rhand -32.7361 -14.9211
rfingers 7.12502
rthumb -5.95942 -44.8173
lclavicle -5.93993e-014 -5.96354e-015
lhumerus -47.391 0.446059 78.7921
lradius 12.391
lwrist -31.0065
lhand -34.988 6.98732
lfingers 7.12502
lthumb -8.13316 36.8108
rfemur 31.9403 -13.9689 17.1586
rtibia -3.49861e-014
rfoot -11.0163 -1.33552
rtoes -22.52
lfemur -18.0872 23.534 -13.114
ltibia 32.0489
lfoot -19.4815 -17.8116
ltoes -10.7334
